<svg width="31" height="34" viewBox="0 0 31 34" fill="none" xmlns="http://www.w3.org/2000/svg">
<path d="M15.5 33.9459C13.6808 33.9459 11.977 33.5388 10.3886 32.7247C8.80031 31.9106 7.41768 30.81 6.24075 29.4231C5.06382 28.0361 4.12994 26.4067 3.43911 24.5349C2.74828 22.6631 2.40238 20.6546 2.40141 18.5096C2.40044 16.3645 2.74634 14.3566 3.43911 12.486C4.13188 10.6153 5.06527 8.98592 6.2393 7.5978C7.41332 6.20967 8.79595 5.10912 10.3872 4.29614C11.9784 3.48316 13.6827 3.07552 15.5 3.07324C17.3173 3.07095 19.0216 3.47858 20.6128 4.29614C22.2041 5.11369 23.5867 6.21424 24.7607 7.5978C25.9347 8.98135 26.8686 10.6107 27.5623 12.486C28.2561 14.3612 28.6015 16.3691 28.5986 18.5096C28.5957 20.6501 28.2503 22.6585 27.5623 24.5349C26.8744 26.4113 25.9406 28.0406 24.7607 29.4231C23.5809 30.8055 22.1982 31.906 20.6128 32.7247C19.0274 33.5434 17.3231 33.9505 15.5 33.9459ZM19.5751 25.7132L21.6127 23.312L16.9554 17.8235V9.93383H14.0446V19.1956L19.5751 25.7132ZM6.18545 0.24324L8.22301 2.64445L2.03756 9.93383L0 7.53262L6.18545 0.24324ZM24.8146 0.24324L31 7.53262L28.9624 9.93383L22.777 2.64445L24.8146 0.24324Z" fill="#D9D9D9"/>
</svg>
