<svg width="29" height="36" viewBox="0 0 29 36" fill="none" xmlns="http://www.w3.org/2000/svg">
<path d="M26.6306 18.9882C26.3939 18.6701 26.2634 18.2612 26.2634 17.8378C26.2634 17.4145 26.3939 17.0055 26.6306 16.6875L28.5197 14.1775C28.7279 13.9033 28.8572 13.5582 28.889 13.1919C28.9208 12.8255 28.8535 12.4566 28.6968 12.1382L25.745 6.10741C25.5899 5.78935 25.3537 5.53723 25.0701 5.387C24.7866 5.23677 24.4701 5.19609 24.1658 5.27077L21.3911 5.93311C21.038 6.01926 20.6704 5.94982 20.3578 5.73789C20.0451 5.52596 19.8089 5.1862 19.6938 4.78273L18.7935 1.59303C18.6944 1.24683 18.5058 0.946135 18.2542 0.733448C18.0026 0.520761 17.7008 0.406838 17.3913 0.407781H11.4877C11.1658 0.387942 10.8473 0.49306 10.5808 0.70708C10.3143 0.9211 10.1145 1.23226 10.0118 1.59303L9.18527 4.78273C9.07015 5.1862 8.83396 5.52596 8.52128 5.73789C8.20859 5.94982 7.84103 6.01926 7.48797 5.93311L4.63946 5.27077C4.35099 5.22263 4.05692 5.27639 3.79427 5.42527C3.53163 5.57415 3.31217 5.8115 3.16355 6.10741L0.211721 12.1382C0.0510828 12.4531 -0.0211453 12.8199 0.00536279 13.1861C0.0318709 13.5524 0.155758 13.8994 0.359312 14.1775L2.23372 16.6875C2.47034 17.0055 2.60083 17.4145 2.60083 17.8378C2.60083 18.2612 2.47034 18.6701 2.23372 18.9882L0.359312 21.4982C0.155758 21.7763 0.0318709 22.1233 0.00536279 22.4895C-0.0211453 22.8558 0.0510828 23.2226 0.211721 23.5375L3.16355 29.5683C3.31866 29.8863 3.55484 30.1385 3.83841 30.2887C4.12198 30.4389 4.43848 30.4796 4.74277 30.4049L7.51749 29.7426C7.87055 29.6564 8.23811 29.7259 8.55079 29.9378C8.86348 30.1497 9.09967 30.4895 9.21479 30.893L10.1151 34.0827C10.2178 34.4434 10.4176 34.7546 10.6842 34.9686C10.9507 35.1826 11.2692 35.2877 11.591 35.2679H17.4947C17.8041 35.2688 18.1059 35.1549 18.3575 34.9422C18.6091 34.7296 18.7978 34.4289 18.8968 34.0827L19.7971 30.893C19.9122 30.4895 20.1484 30.1497 20.4611 29.9378C20.7738 29.7259 21.1413 29.6564 21.4944 29.7426L24.2691 30.4049C24.5734 30.4796 24.8899 30.4389 25.1735 30.2887C25.457 30.1385 25.6932 29.8863 25.8483 29.5683L28.8001 23.5375C28.9569 23.219 29.0241 22.8502 28.9923 22.4838C28.9605 22.1174 28.8312 21.7724 28.623 21.4982L26.6306 18.9882ZM24.4314 21.3239L25.6122 22.8926L23.723 26.762L21.9814 26.3437C20.9184 26.0871 19.8127 26.3003 18.874 26.943C17.9354 27.5856 17.2292 28.6128 16.8895 29.8297L16.3287 31.7819H12.5503L12.019 29.7949C11.6793 28.578 10.9732 27.5507 10.0345 26.9081C9.09587 26.2655 7.99011 26.0522 6.92712 26.3089L5.18555 26.7272L3.26686 22.8751L4.44759 21.3064C5.17367 20.3477 5.57509 19.1066 5.57509 17.8204C5.57509 16.5342 5.17367 15.2931 4.44759 14.3344L3.26686 12.7657L5.15603 8.93108L6.89761 9.3494C7.96059 9.60601 9.06635 9.39277 10.005 8.75016C10.9436 8.10754 11.6498 7.08029 11.9895 5.86339L12.5503 3.89379H16.3287L16.8895 5.88082C17.2292 7.09772 17.9354 8.12497 18.874 8.76758C19.8127 9.4102 20.9184 9.62344 21.9814 9.36683L23.723 8.94851L25.6122 12.818L24.4314 14.3867C23.7135 15.3432 23.3171 16.5771 23.3171 17.8553C23.3171 19.1335 23.7135 20.3674 24.4314 21.3239ZM14.4395 10.8658C13.2719 10.8658 12.1305 11.2747 11.1596 12.0408C10.1888 12.8069 9.43209 13.8958 8.98526 15.1698C8.53842 16.4437 8.42151 17.8456 8.6493 19.198C8.8771 20.5505 9.43937 21.7928 10.265 22.7678C11.0906 23.7429 12.1426 24.4069 13.2878 24.6759C14.433 24.9449 15.62 24.8069 16.6987 24.2792C17.7775 23.7515 18.6995 22.8578 19.3482 21.7113C19.9969 20.5647 20.3432 19.2168 20.3432 17.8378C20.3432 15.9887 19.7212 14.2154 18.614 12.9079C17.5069 11.6004 16.0053 10.8658 14.4395 10.8658ZM14.4395 21.3239C13.8557 21.3239 13.285 21.1194 12.7996 20.7364C12.3141 20.3533 11.9358 19.8089 11.7124 19.1719C11.489 18.5349 11.4305 17.834 11.5444 17.1578C11.6583 16.4815 11.9394 15.8604 12.3523 15.3729C12.7651 14.8853 13.291 14.5533 13.8636 14.4188C14.4362 14.2843 15.0298 14.3533 15.5691 14.6172C16.1085 14.881 16.5695 15.3278 16.8939 15.9011C17.2182 16.4744 17.3913 17.1484 17.3913 17.8378C17.3913 18.7624 17.0803 19.6491 16.5268 20.3028C15.9732 20.9566 15.2224 21.3239 14.4395 21.3239Z" fill="#D9D9D9"/>
</svg>
